<svg xmlns="http://www.w3.org/2000/svg" width="24" height="24" viewBox="0 0 24 24" fill="none" stroke="#4f46e5" stroke-width="2" stroke-linecap="round" stroke-linejoin="round">
  <path d="M21.2 8.4c.5.38.8.97.8 1.6v10a2 2 0 0 1-2 2H4a2 2 0 0 1-2-2V10a2 2 0 0 1 2-2h.8"></path>
  <path d="M10.8 2H14a2 2 0 0 1 2 2v4a2 2 0 0 1-2 2h-3.2a2 2 0 0 1-2-2V4c0-1.1.9-2 2-2z"></path>
  <path d="M7 16.5a1.5 1.5 0 0 0-3 0v3a1.5 1.5 0 0 0 3 0v-3z"></path>
  <path d="M7 13.5V10H4"></path>
  <path d="M17 16.5a1.5 1.5 0 0 1 3 0v3a1.5 1.5 0 0 1-3 0v-3z"></path>
  <path d="M17 13.5V10h3"></path>
  <path d="M12 13.5a1.5 1.5 0 1 0 0 3 1.5 1.5 0 0 0 0-3z"></path>
  <path d="M12 20v-3"></path>
</svg>
